<svg xmlns="http://www.w3.org/2000/svg" width="210mm" height="297mm" viewBox="0 0 744.09448819 1052.3622047">
    <g style="line-height:125%" font-size="49.366" font-family="sans-serif" letter-spacing="0" word-spacing="0">
        <path d="M86.386 164.038c-1.753.122-3.506.86-4.962 2.304-3.262-4.844-9.612-.654-7.022 8.098v27.708c6.957 2.686 7.996-3.22 7.022-12.05-.115-5.53-1.194-16.778 4.762-16.616 5.074.313 2.802 10.7 3.3 15.292.088 6.916-1.732 16.6 5.342 13.374 3.684-2.282.69-14.26 1.66-20.484.628-9.122-2.83-18.657-10.102-17.626zM109.225 164.033c-8.327.325-11.72 14.685-9.878 24.84.832 10.54 9.67 16.622 15.647 11.542-2.04 8.22-9.668 4.414-13.343.857.433 4.61-1.68 12.035 2.923 12.226 6.252 2.73 15.257.82 17.03-9.927 1.697-12.713.178-25.895.69-38.77-3.72-1.386-6.165 1.985-8.608.17-1.42-.77-2.952-1.027-4.46-.937zm1.754 9.286c5.258 1.092 5.157 12.074 2.993 17.287-2.832 5.348-8.402.502-7.85-5.62-.358-4.722.47-12.274 4.856-11.668zM136.91 153.196c-6.328-.637-12.73 7.244-11.426 16.892.59 10.03 8.702 12.084 14.128 13.508 4.008.953 2.958 9.75-.852 9.56-4.758 1.262-9.274-2.047-13.244-5.427.488 5.056-1.878 13.16 3.233 13.39 6.658 2.98 16.52 3.64 20.14-6.9 2.68-8.333-.696-19.104-7.058-20.856-3-1.83-10.382-.53-8.78-7.832 3.89-5.99 10.57-1.23 14.785 1.7-.233-4.353 1.85-12.684-3.05-12.592-2.56-1.01-5.222-1.543-7.878-1.444z"/>
        <path d="M150.128 168.126c2.63 10.746 6.91 21.474 8.506 32.232-.45 4.317-2.875 6.133-5.78 4.87-2.43 4.143-.797 12.374 4.484 9.26 7.264-.498 7.956-13.747 10.615-20.89l7.973-28.798c-5.572-1.643-9.32.625-10.055 9.348-1.922 8.647-3.845 15.858-5.767 3.057-1.93-6.027-2.253-15.5-8.44-12.405-2.626-.09-2.876-.624-1.535 3.326zM191.635 154.547c-.897 2.732 1.93 13.878-1.616 10.425-6.583-4.042-13.88 3.783-14.462 13.668-1.525 10.04 1.894 23.897 10.01 24.33 2.098.132 4.28-.42 6.067-2.086 3.645 4.35 9.423.298 7-8.376v-40.37c-1.99 1.03-7.675-2.346-7 2.41zm-4.327 18.775c8.055 1.613 4.157 28.025-3.548 18.04-2.133-5.416-2.35-16.12 2.718-18.014.276-.04.554-.047.83-.026zM214.742 164.038c-1.753.122-3.508.86-4.963 2.306-3.26-4.848-9.613-.655-7.022 8.096v27.708c6.957 2.686 7.994-3.223 7.02-12.05-.287-5.698-1.042-17.487 5.222-16.59 4.853 1.444 2.104 11.6 2.843 16.47-.596 7.91-.645 15.022 6.17 12.17 1.922-4.842.29-14.844.83-21.69.507-8.834-3.44-17.492-10.1-16.42zM239.295 164.033c-8.074-.294-13.295 12.133-11.864 22.884.462 11.352 8.848 18.088 16.05 15.798 3.255-1 8.6-1.48 7.05-8.246 1.115-6.888-1.442-4.48-4.258-2.35-3.894 2.44-10.594 2.795-11.56-4.958h16.68c.954-9.333-1.736-21.37-9.048-22.853-1.005-.26-2.03-.33-3.05-.277zm.963 9.343c1.91-.057 3.557 2.14 3.932 4.79-1.993-1.37-10.2 2.72-8.623-1.872 1.003-2.25 2.933-3.048 4.69-2.918z"/>
        <path d="M251.517 168.126c2.63 10.746 6.908 21.474 8.505 32.232-.434 4.368-2.888 6.094-5.78 4.87-2.43 4.143-.797 12.374 4.484 9.26 7.264-.497 7.955-13.747 10.615-20.89 2.66-9.6 5.317-19.2 7.974-28.798-5.572-1.643-9.32.625-10.055 9.348-1.923 8.648-3.845 15.857-5.77 3.058-1.93-6.026-2.25-15.5-8.438-12.406-2.625-.09-2.876-.624-1.535 3.326z"/>
    </g>
</svg>
